<svg width="256" height="80" viewBox="0 0 256 80" fill="none" xmlns="http://www.w3.org/2000/svg">
<rect x="4" y="4" width="248" height="72" rx="6" fill="white"/>
<rect x="28" y="36" width="8" height="8" fill="url(#paint0_linear)"/>
<rect x="220" y="36" width="8" height="8" fill="url(#paint1_linear)"/>
<path d="M244 46L244 68L222 68L244 46Z" fill="#149280"/>
<path d="M38 12H244V42" stroke="url(#paint2_linear)" stroke-linecap="round"/>
<path d="M218 68L12 68L12 38" stroke="url(#paint3_linear)" stroke-linecap="round"/>
<path d="M12 34V12H34L12 34Z" fill="#168EC7"/>
<rect x="4" y="4" width="248" height="72" rx="6" stroke="url(#paint4_linear)" stroke-width="8"/>
<defs>
<linearGradient id="paint0_linear" x1="32" y1="36" x2="32" y2="44" gradientUnits="userSpaceOnUse">
<stop stop-color="#168EC7"/>
<stop offset="1" stop-color="#149280"/>
</linearGradient>
<linearGradient id="paint1_linear" x1="224" y1="36" x2="224" y2="44" gradientUnits="userSpaceOnUse">
<stop stop-color="#168EC7"/>
<stop offset="1" stop-color="#149280"/>
</linearGradient>
<linearGradient id="paint2_linear" x1="141" y1="12" x2="141" y2="42" gradientUnits="userSpaceOnUse">
<stop stop-color="#168EC7"/>
<stop offset="1" stop-color="#149280"/>
</linearGradient>
<linearGradient id="paint3_linear" x1="115" y1="68" x2="115" y2="38" gradientUnits="userSpaceOnUse">
<stop stop-color="#168EC7"/>
<stop offset="1" stop-color="#149280"/>
</linearGradient>
<linearGradient id="paint4_linear" x1="128" y1="8" x2="128" y2="72" gradientUnits="userSpaceOnUse">
<stop stop-color="#168EC7"/>
<stop offset="1" stop-color="#149280"/>
</linearGradient>
</defs>
</svg>
